<svg width="48" height="48" viewBox="0 0 48 48" fill="none" xmlns="http://www.w3.org/2000/svg">
<path d="M48 24C48 37.2548 37.2548 48 24 48C10.7452 48 0 37.2548 0 24C0 10.7452 10.7452 0 24 0C37.2548 0 48 10.7452 48 24Z" fill="#242627"/>
<path d="M45.673 24.0101C45.673 35.9742 35.9742 45.673 24.0101 45.673C12.046 45.673 2.34719 35.9742 2.34719 24.0101C2.34719 12.046 12.046 2.34719 24.0101 2.34719C35.9742 2.34719 45.673 12.046 45.673 24.0101Z" fill="#242627"/>
<path d="M44.7341 24.0101C44.7341 12.5645 35.4556 3.28606 24.0101 3.28606C12.5645 3.28606 3.28606 12.5645 3.28606 24.0101C3.28606 35.4556 12.5645 44.7341 24.0101 44.7341V45.673C12.046 45.673 2.34719 35.9742 2.34719 24.0101C2.34719 12.046 12.046 2.34719 24.0101 2.34719C35.9742 2.34719 45.673 12.046 45.673 24.0101C45.673 35.9742 35.9742 45.673 24.0101 45.673V44.7341C35.4556 44.7341 44.7341 35.4556 44.7341 24.0101Z" fill="#F5F3F0"/>
<path d="M21.3859 12.0359C21.4825 11.8306 21.7272 11.7425 21.9325 11.8391C22.1378 11.9356 22.2259 12.1803 22.1293 12.3856L10.9546 36.1368C10.858 36.342 10.6133 36.4301 10.4081 36.3336C10.2028 36.237 10.1147 35.9923 10.2113 35.787L21.3859 12.0359Z" fill="#EFF4FA"/>
<path d="M21.7117 23.7653C21.9385 23.7653 22.1224 23.9492 22.1224 24.176C22.1224 24.4029 21.9385 24.5868 21.7117 24.5868H11.384C11.1572 24.5868 10.9733 24.4029 10.9733 24.176C10.9733 23.9492 11.1572 23.7653 11.384 23.7653L21.7117 23.7653Z" fill="#EFF4FA"/>
<path d="M28.3865 12.089C28.4507 11.8714 28.6792 11.7471 28.8968 11.8114C29.1143 11.8757 29.2385 12.1042 29.1743 12.3217L22.1544 36.0849C22.0901 36.3025 21.8616 36.4268 21.6441 36.3625C21.4265 36.2982 21.3023 36.0697 21.3665 35.8522L28.3865 12.089Z" fill="#EFF4FA"/>
<path d="M28.3709 12.2055C28.3709 11.9786 28.5548 11.7947 28.7817 11.7947C29.0085 11.7947 29.1924 11.9786 29.1924 12.2055V35.9752C29.1924 36.2021 29.0085 36.386 28.7817 36.386C28.5548 36.386 28.3709 36.2021 28.3709 35.9752V12.2055Z" fill="#EFF4FA"/>
<path d="M35.3907 12.2055C35.3907 11.9786 35.5746 11.7947 35.8014 11.7947C36.0283 11.7947 36.2122 11.9786 36.2122 12.2055V35.9752C36.2122 36.2021 36.0283 36.386 35.8014 36.386C35.5746 36.386 35.3907 36.2021 35.3907 35.9752V12.2055Z" fill="#EFF4FA"/>
<path d="M21.3453 12.2055C21.3453 11.9786 21.5292 11.7947 21.7561 11.7947C21.9829 11.7947 22.1668 11.9786 22.1668 12.2055V35.9752C22.1668 36.2021 21.9829 36.386 21.7561 36.386C21.5292 36.386 21.3453 36.2021 21.3453 35.9752V12.2055Z" fill="#EFF4FA"/>
<path d="M35.4091 12.0956C35.4734 11.8781 35.7019 11.7538 35.9194 11.8181C36.137 11.8823 36.2612 12.1108 36.197 12.3284L29.1771 36.0916C29.1128 36.3092 28.8843 36.4334 28.6668 36.3692C28.4492 36.3049 28.3249 36.0764 28.3892 35.8589L35.4091 12.0956Z" fill="#EFF4FA"/>
</svg>
